<svg width="445" height="192" viewBox="0 0 445 192" fill="none" xmlns="http://www.w3.org/2000/svg">
<path d="M13.4 7.96V22H9.98V16.22H4.66V22H1.24V7.96H4.66V13.46H9.98V7.96H13.4ZM25.2089 19.52H19.9689L19.1289 22H15.5489L20.6289 7.96H24.5889L29.6689 22H26.0489L25.2089 19.52ZM24.3289 16.88L22.5889 11.74L20.8689 16.88H24.3289ZM43.855 7.96L38.995 17.36V22H35.575V17.36L30.715 7.96H34.595L37.315 13.84L40.015 7.96H43.855ZM54.573 19.52H49.333L48.493 22H44.913L49.993 7.96H53.953L59.033 22H55.413L54.573 19.52ZM53.693 16.88L51.953 11.74L50.233 16.88H53.693ZM67.8191 22.14C66.4991 22.14 65.2857 21.8333 64.1791 21.22C63.0857 20.6067 62.2124 19.7533 61.5591 18.66C60.9191 17.5533 60.5991 16.3133 60.5991 14.94C60.5991 13.5667 60.9191 12.3333 61.5591 11.24C62.2124 10.1467 63.0857 9.29333 64.1791 8.68C65.2857 8.06667 66.4991 7.76 67.8191 7.76C69.1391 7.76 70.3457 8.06667 71.4391 8.68C72.5457 9.29333 73.4124 10.1467 74.0391 11.24C74.6791 12.3333 74.9991 13.5667 74.9991 14.94C74.9991 16.3133 74.6791 17.5533 74.0391 18.66C73.3991 19.7533 72.5324 20.6067 71.4391 21.22C70.3457 21.8333 69.1391 22.14 67.8191 22.14ZM67.8191 19.02C68.9391 19.02 69.8324 18.6467 70.4991 17.9C71.1791 17.1533 71.5191 16.1667 71.5191 14.94C71.5191 13.7 71.1791 12.7133 70.4991 11.98C69.8324 11.2333 68.9391 10.86 67.8191 10.86C66.6857 10.86 65.7791 11.2267 65.0991 11.96C64.4324 12.6933 64.0991 13.6867 64.0991 14.94C64.0991 16.18 64.4324 17.1733 65.0991 17.92C65.7791 18.6533 66.6857 19.02 67.8191 19.02ZM98.24 7.96V22H94.82V13.58L91.68 22H88.92L85.76 13.56V22H82.34V7.96H86.38L90.32 17.68L94.22 7.96H98.24ZM104.719 7.96V22H101.299V7.96H104.719ZM119.838 7.96L114.978 17.36V22H111.558V17.36L106.698 7.96H110.578L113.298 13.84L115.998 7.96H119.838ZM130.556 19.52H125.316L124.476 22H120.896L125.976 7.96H129.936L135.016 22H131.396L130.556 19.52ZM129.676 16.88L127.936 11.74L126.216 16.88H129.676ZM140.802 19.2H146.842V22H136.922V19.4L142.922 10.76H136.922V7.96H146.842V10.56L140.802 19.2ZM158.416 19.52H153.176L152.336 22H148.756L153.836 7.96H157.796L162.876 22H159.256L158.416 19.52ZM157.536 16.88L155.796 11.74L154.076 16.88H157.536ZM173.162 22L168.442 15.8V22H165.022V7.96H168.442V14.12L173.122 7.96H177.142L171.702 14.84L177.342 22H173.162ZM182.987 7.96V22H179.567V7.96H182.987Z" fill="#F9F9F9"/>
<path d="M34.272 97.724H18.224L15.844 105H0L17.612 56.856H35.02L52.564 105H36.652L34.272 97.724ZM30.6 86.368L26.248 72.972L21.896 86.368H30.6ZM116.032 56.856L99.8484 105H80.3324L64.1484 56.856H80.1964L90.1244 89.972L99.9844 56.856H116.032ZM134.508 56.856V105H119.412V56.856H134.508ZM172.198 97.724H156.15L153.77 105H137.926L155.538 56.856H172.946L190.49 105H174.578L172.198 97.724ZM168.526 86.368L164.174 72.972L159.822 86.368H168.526ZM223.432 73.312C222.842 72.36 222.004 71.6347 220.916 71.136C219.828 70.592 218.513 70.32 216.972 70.32C214.07 70.32 211.826 71.272 210.24 73.176C208.653 75.0347 207.86 77.596 207.86 80.86C207.86 84.6227 208.744 87.4333 210.512 89.292C212.28 91.1507 215 92.08 218.672 92.08C222.162 92.08 224.973 90.6747 227.104 87.864H215.068V77.188H239.616V92.284C237.53 95.8653 234.652 98.948 230.98 101.532C227.308 104.071 222.661 105.34 217.04 105.34C212.053 105.34 207.701 104.32 203.984 102.28C200.312 100.195 197.478 97.2933 195.484 93.576C193.534 89.8587 192.56 85.62 192.56 80.86C192.56 76.1 193.534 71.8613 195.484 68.144C197.478 64.4267 200.312 61.548 203.984 59.508C207.656 57.4227 211.962 56.38 216.904 56.38C223.205 56.38 228.328 57.8987 232.272 60.936C236.261 63.9733 238.618 68.0987 239.344 73.312H223.432ZM260.148 68.892V74.808H275.108V86.164H260.148V92.964H277.148V105H245.052V56.856H277.148V68.892H260.148ZM340.706 56.856V105H325.678V80.996L318.266 105H305.346L297.934 80.996V105H282.838V56.856H301.334L311.942 85.756L322.278 56.856H340.706ZM23.46 130.856C28.492 130.856 32.8893 131.876 36.652 133.916C40.46 135.956 43.384 138.789 45.424 142.416C47.464 146.043 48.484 150.168 48.484 154.792C48.484 159.371 47.464 163.496 45.424 167.168C43.384 170.84 40.46 173.741 36.652 175.872C32.8893 177.957 28.492 179 23.46 179H3.4V130.856H23.46ZM22.1 165.536C25.5 165.536 28.1973 164.607 30.192 162.748C32.1867 160.889 33.184 158.237 33.184 154.792C33.184 151.347 32.1867 148.695 30.192 146.836C28.1973 144.977 25.5 144.048 22.1 144.048H18.496V165.536H22.1ZM69.0312 142.892V148.808H83.9912V160.164H69.0312V166.964H86.0312V179H53.9352V130.856H86.0312V142.892H69.0312ZM101.915 154.86C101.915 150.1 102.867 145.861 104.771 142.144C106.72 138.427 109.486 135.548 113.067 133.508C116.648 131.423 120.864 130.38 125.715 130.38C129.886 130.38 133.603 131.173 136.867 132.76C140.176 134.301 142.851 136.5 144.891 139.356C146.976 142.212 148.359 145.544 149.039 149.352H133.127C132.402 147.765 131.359 146.541 129.999 145.68C128.684 144.773 127.166 144.32 125.443 144.32C122.904 144.32 120.887 145.272 119.391 147.176C117.94 149.08 117.215 151.641 117.215 154.86C117.215 158.079 117.94 160.64 119.391 162.544C120.887 164.448 122.904 165.4 125.443 165.4C127.166 165.4 128.684 164.969 129.999 164.108C131.359 163.201 132.402 161.955 133.127 160.368H149.039C148.359 164.176 146.976 167.508 144.891 170.364C142.851 173.22 140.176 175.441 136.867 177.028C133.603 178.569 129.886 179.34 125.715 179.34C120.864 179.34 116.648 178.32 113.067 176.28C109.486 174.195 106.72 171.293 104.771 167.576C102.867 163.859 101.915 159.62 101.915 154.86ZM199.014 130.856V179H183.918V160.232H169.57V179H154.474V130.856H169.57V148.196H183.918V130.856H199.014ZM220.902 130.856V179H205.806V130.856H220.902ZM272.26 130.856V179H257.164V160.232H242.816V179H227.72V130.856H242.816V148.196H257.164V130.856H272.26ZM294.148 130.856V179H279.052V130.856H294.148ZM325.174 179L316.13 161.728H316.062V179H300.966V130.856H323.406C327.305 130.856 330.637 131.559 333.402 132.964C336.168 134.324 338.23 136.205 339.59 138.608C340.996 140.965 341.698 143.64 341.698 146.632C341.698 149.851 340.792 152.707 338.978 155.2C337.21 157.693 334.649 159.484 331.294 160.572L341.766 179H325.174ZM316.062 151.664H322.046C323.497 151.664 324.585 151.347 325.31 150.712C326.036 150.032 326.398 148.989 326.398 147.584C326.398 146.315 326.013 145.317 325.242 144.592C324.517 143.867 323.452 143.504 322.046 143.504H316.062V151.664ZM369.981 179.476C365.448 179.476 361.277 178.411 357.469 176.28C353.706 174.149 350.714 171.203 348.493 167.44C346.272 163.677 345.161 159.439 345.161 154.724C345.161 150.009 346.272 145.771 348.493 142.008C350.714 138.245 353.706 135.321 357.469 133.236C361.277 131.105 365.448 130.04 369.981 130.04C374.514 130.04 378.662 131.105 382.425 133.236C386.188 135.321 389.157 138.245 391.333 142.008C393.554 145.771 394.665 150.009 394.665 154.724C394.665 159.439 393.554 163.677 391.333 167.44C389.157 171.203 386.165 174.149 382.357 176.28C378.594 178.411 374.469 179.476 369.981 179.476ZM369.981 165.4C372.973 165.4 375.285 164.448 376.917 162.544C378.549 160.595 379.365 157.988 379.365 154.724C379.365 151.415 378.549 148.808 376.917 146.904C375.285 144.955 372.973 143.98 369.981 143.98C366.944 143.98 364.609 144.955 362.977 146.904C361.345 148.808 360.529 151.415 360.529 154.724C360.529 157.988 361.345 160.595 362.977 162.544C364.609 164.448 366.944 165.4 369.981 165.4Z" fill="#F9F9F9"/>
</svg>
